<?xml version="1.0" encoding="utf-8"?>
<!-- Generator: Adobe Illustrator 24.1.1, SVG Export Plug-In . SVG Version: 6.00 Build 0)  -->
<svg version="1.1" id="Capa_1" xmlns="http://www.w3.org/2000/svg" xmlns:xlink="http://www.w3.org/1999/xlink" x="0px" y="0px"
	 viewBox="0 0 141.73 138.93" style="enable-background:new 0 0 141.73 138.93;" xml:space="preserve">
<style type="text/css">
	.st0{fill:#010202;}
	.st1{fill:#FFFFFF;}
</style>
<g>
	<path class="st0" d="M83.44,56.89c0.16,0.33,0.39,0.62,0.7,0.86c0.31,0.24,0.7,0.36,1.18,0.38c0.06,0.09,0.2,0.1,0.42,0.03
		c0.22-0.07,0.46-0.18,0.73-0.32c0.27-0.14,0.53-0.31,0.79-0.5c0.26-0.19,0.45-0.37,0.57-0.53c0-1.28-0.04-2.56-0.1-3.84
		c-0.07-1.28-0.13-2.57-0.19-3.87c-0.12-0.12-0.26-0.29-0.43-0.49s-0.35-0.37-0.55-0.52c-0.2-0.14-0.41-0.23-0.64-0.26
		c-0.23-0.04-0.46,0.05-0.7,0.26c-0.44,0.39-0.8,0.85-1.07,1.39c-0.28,0.54-0.5,1.11-0.67,1.7c-0.17,0.6-0.28,1.21-0.34,1.82
		c-0.06,0.62-0.09,1.2-0.09,1.74c0,0.32,0.03,0.67,0.09,1.06C83.17,56.19,83.28,56.56,83.44,56.89z"/>
	<path class="st0" d="M89.62,70.56c-0.23,0.26-0.48,0.54-0.75,0.83c-0.11,0.18-0.25,0.39-0.41,0.63c-0.17,0.24-0.33,0.49-0.5,0.74
		c-0.16,0.25-0.31,0.51-0.45,0.78c-0.13,0.26-0.21,0.5-0.23,0.69c0.51,0,1.05-0.1,1.64-0.3c0.58-0.2,1.2-0.55,1.84-1.06
		c0.24-0.15,0.47-0.35,0.69-0.6c0.22-0.24,0.4-0.49,0.53-0.74c0.13-0.25,0.2-0.49,0.2-0.71c0-0.22-0.09-0.4-0.26-0.53h0.03
		c-0.33-0.29-0.63-0.45-0.89-0.48c-0.26-0.03-0.51,0.02-0.74,0.15C90.08,70.09,89.85,70.29,89.62,70.56z"/>
	<path class="st0" d="M85.25,101.93c-0.1-0.12-0.22-0.27-0.37-0.47c-0.14-0.19-0.3-0.36-0.47-0.49c-0.17-0.13-0.35-0.22-0.54-0.25
		c-0.19-0.03-0.39,0.05-0.59,0.25c-0.37,0.37-0.67,0.81-0.91,1.33c-0.24,0.51-0.43,1.06-0.57,1.63c-0.14,0.57-0.24,1.15-0.29,1.74
		c-0.05,0.59-0.08,1.15-0.08,1.67c0,0.3,0.03,0.64,0.08,1.01c0.05,0.37,0.14,0.72,0.28,1.04c0.13,0.32,0.33,0.59,0.59,0.82
		c0.26,0.23,0.59,0.35,1,0.37c0.05,0.08,0.17,0.09,0.35,0.03c0.19-0.07,0.39-0.17,0.62-0.3c0.23-0.14,0.45-0.3,0.67-0.48
		c0.22-0.19,0.38-0.35,0.48-0.51c0-1.23-0.03-2.46-0.09-3.68C85.36,104.41,85.3,103.18,85.25,101.93z"/>
	<path class="st0" d="M103.31,53.18c-0.03-1.12-0.06-2.31-0.11-3.58c-0.12-0.21-0.24-0.44-0.37-0.67c-0.13-0.24-0.28-0.45-0.46-0.63
		c-0.18-0.18-0.39-0.31-0.63-0.37c-0.24-0.06-0.54-0.02-0.89,0.12c-0.38,0.46-0.71,0.96-1,1.5c-0.29,0.55-0.53,1.11-0.73,1.7
		c-0.2,0.59-0.35,1.2-0.46,1.82c-0.11,0.63-0.16,1.24-0.16,1.83c0,0.74,0.17,1.39,0.52,1.97c0.35,0.57,0.92,0.9,1.71,0.99
		c0.26,0,0.5,0,0.73-0.01c0.23-0.01,0.45-0.06,0.66-0.15c0.21-0.09,0.41-0.22,0.61-0.4c0.2-0.18,0.41-0.44,0.63-0.79
		C103.35,55.41,103.34,54.3,103.31,53.18z"/>
	<path class="st0" d="M120.9,105.03c-0.23-0.41-0.48-0.81-0.75-1.19c0.22-0.42,0.41-0.86,0.56-1.34c0.24-0.78,0.36-1.59,0.36-2.42
		c0-1.47-0.4-2.91-1.16-4.18c-0.64-1.06-1.47-1.96-2.46-2.68c-0.86-0.63-1.83-1.12-2.87-1.47c-1.46-0.49-3.01-0.63-4.46-0.46
		c0-0.19,0-0.38,0-0.57l0-0.19c-0.06-1.81-0.76-3.44-2-4.72c-1.32-1.36-3.1-2.11-5-2.11c-0.77,0-1.53,0.13-2.24,0.37
		c0.2-0.7,0.33-1.41,0.33-2.14c0-1.17-0.27-2.29-0.81-3.31c-0.2-0.39-0.43-0.75-0.69-1.1c0.41-0.6,0.77-1.22,1.07-1.87l3.48-1.61
		c0.21-0.09,0.43-0.17,0.64-0.28c1.44-0.75,2.68-1.75,3.68-2.95c0.9-1.08,1.63-2.3,2.17-3.62c0.44-1.08,0.79-2.16,1.02-3.16
		c0.34-1.4,0.57-2.83,0.7-4.25c0.11-1.33,0.16-2.69,0.14-3.94c0-1.1-0.01-2.11-0.03-3.04c-0.02-0.91-0.05-1.78-0.08-2.6
		c-0.03-0.77-0.05-1.51-0.07-2.21c-0.02-0.67-0.03-1.35-0.03-2.02c0-2.29-1.05-4.33-2.89-5.61c-1.93-1.33-4.41-1.7-6.67-1
		c-0.53-0.1-1.06-0.14-1.59-0.14c-2.01,0-3.83,0.51-5.41,1.52c-0.29,0.19-0.57,0.39-0.84,0.6c-0.2-0.22-0.42-0.43-0.65-0.62
		c-1.36-1.15-3.03-1.76-4.82-1.76c-0.66,0-1.3,0.08-1.91,0.24c-2.39-0.42-4.67-0.02-6.59,1c-0.9,0.48-1.73,1.08-2.47,1.77
		c-0.77-0.77-1.68-1.4-2.72-1.89c-1.34-0.63-2.89-0.95-4.6-0.95c-1.37,0-2.69,0.26-3.92,0.76c-0.91-0.34-1.85-0.55-2.83-0.62
		c-1.07-0.08-2.15,0.01-3.2,0.25c-0.44-0.14-0.89-0.23-1.35-0.28c0.44-0.15,0.86-0.31,1.25-0.49c3.55-1.63,5.59-4.74,5.59-8.54
		c0-2.01-0.65-4.94-3.73-7.5c-2.18-1.82-5.16-2.74-8.86-2.74c-4.14,0-8.27,0.05-12.3,0.15c-4.12,0.1-8.3,0.36-12.37,0.76
		c-3.79,0.32-6.13,1.98-7.43,3.31c-2.47,2.53-2.99,5.12-2.99,6.84c0,3.84,2.12,6.92,5.81,8.46c1.82,0.76,3.72,1.24,5.66,1.41
		c-0.1,2.61-0.15,5.23-0.15,7.82c0,4.49,0.08,9.04,0.23,13.5c0.15,4.44,0.34,8.96,0.57,13.45c0.14,2.63,0.24,5.31,0.33,7.99
		c-1.79,0.13-3.47,0.4-5.01,0.8c-2.05,0.53-3.8,1.37-5.22,2.5c-2.09,1.67-3.24,4.12-3.24,6.9c0,1.85,0.6,5.33,4.63,7.95
		c2.34,1.52,5.1,2.3,8.19,2.3h0.31l0.3-0.04c1.96-0.23,3.92-0.37,5.8-0.41c1.96-0.05,3.91-0.05,5.79,0
		c1.93,0.05,3.85,0.12,5.74,0.22c2.04,0.1,4.11,0.16,6.15,0.16c0.65,0,1.28-0.04,1.91-0.1l2.58,7.55c0.07,0.19,0.14,0.38,0.22,0.56
		c0.56,1.37,1.35,2.62,2.34,3.73c1.15,1.28,2.58,2.25,4.19,2.88c2.57,1.04,5.39,1.03,8.12-0.11c0.92-0.38,1.79-0.88,2.6-1.47
		c0.38,0.32,0.77,0.63,1.2,0.89c1.49,0.94,3.19,1.42,5.04,1.42c0.26,0,0.58-0.01,0.99-0.04c0.41-0.03,0.84-0.08,1.3-0.17
		c0.52,0.12,1.05,0.18,1.6,0.18c0.75,0,1.47-0.11,2.15-0.32c0.7,0.22,1.43,0.35,2.18,0.35c1.62,0,3.15-0.53,4.44-1.54
		c0.51-0.4,0.94-0.87,1.3-1.38c0.36,0.51,0.78,0.97,1.29,1.37c1.29,1.01,2.82,1.55,4.44,1.55c1.6,0,3.12-0.52,4.42-1.52
		c0.02-0.01,0.03-0.03,0.05-0.05c0.51,0.29,1.05,0.55,1.6,0.78c1.29,0.52,2.67,0.79,4.09,0.79c1.28,0,2.51-0.24,3.65-0.73
		c1.15-0.49,2.15-1.2,2.99-2.1c0.79-0.84,1.41-1.83,1.84-2.93c0.44-1.11,0.66-2.3,0.66-3.53
		C122.18,108.23,121.75,106.53,120.9,105.03z M94.54,66.73c-0.01-0.08-0.04-0.15-0.04-0.23c0-0.46,0.14-0.85,0.42-1.19
		c0.28-0.33,0.7-0.5,1.25-0.5c0.3,0,0.56,0.05,0.79,0.16c0.23,0.11,0.45,0.23,0.67,0.38c0.22,0.15,0.44,0.3,0.67,0.45
		c0.23,0.15,0.49,0.27,0.79,0.36c0.72,0.04,1.3-0.12,1.74-0.47c0.45-0.35,0.82-0.79,1.1-1.32c0.29-0.53,0.51-1.09,0.66-1.69
		c0.15-0.6,0.27-1.14,0.37-1.61c-1.11,0.35-2.18,0.44-3.19,0.25c-1.01-0.18-1.91-0.57-2.68-1.15c-0.78-0.58-1.4-1.32-1.86-2.2
		c-0.47-0.89-0.7-1.86-0.7-2.92c0-0.25,0.03-0.68,0.09-1.31c0.06-0.62,0.17-1.33,0.34-2.13c0.17-0.79,0.4-1.61,0.7-2.46
		c0.3-0.84,0.7-1.62,1.19-2.32s1.1-1.28,1.82-1.74c0.71-0.46,1.57-0.69,2.56-0.69c0.38,0,0.75,0.06,1.12,0.17
		c0.37,0.11,0.72,0.26,1.06,0.44c0.18-0.28,0.43-0.49,0.74-0.62c0.32-0.13,0.65-0.2,0.98-0.2c0.5,0,0.95,0.14,1.36,0.42
		c0.41,0.28,0.61,0.7,0.61,1.27c0,0.72,0.01,1.44,0.03,2.17c0.02,0.72,0.04,1.48,0.07,2.27c0.03,0.79,0.05,1.63,0.08,2.52
		c0.02,0.89,0.03,1.86,0.03,2.92c0.02,1.16-0.02,2.32-0.12,3.49c-0.1,1.16-0.29,2.31-0.57,3.46c-0.18,0.77-0.44,1.57-0.78,2.4
		c-0.34,0.83-0.79,1.57-1.34,2.24c-0.56,0.67-1.25,1.22-2.07,1.65c-0.83,0.43-1.83,0.65-3.03,0.65c-0.46,0-0.97-0.07-1.54-0.21
		c-0.57-0.14-1.1-0.35-1.61-0.62c-0.09-0.05-0.16-0.1-0.24-0.15c0.02,0.04,0.05,0.08,0.07,0.13c0.3,0.67,0.45,1.38,0.45,2.13
		c0,0.75-0.15,1.48-0.46,2.2c-0.31,0.72-0.73,1.38-1.26,2c-0.53,0.62-1.14,1.17-1.84,1.67s-1.43,0.9-2.2,1.21
		c-0.77,0.31-1.56,0.51-2.35,0.61c-0.79,0.1-1.56,0.06-2.28-0.12c0,0.35,0.02,0.76,0.05,1.22c0.03,0.46,0.12,0.91,0.27,1.34
		c0.14,0.43,0.36,0.79,0.64,1.09c0.29,0.3,0.69,0.45,1.22,0.45c0.6,0,1.11-0.15,1.54-0.46c0.43-0.31,0.84-0.66,1.22-1.04
		c0.39-0.39,0.77-0.73,1.16-1.04c0.39-0.31,0.83-0.46,1.34-0.46c0.26,0,0.53,0.06,0.81,0.18c0.28,0.12,0.52,0.28,0.75,0.48
		c0.22,0.2,0.4,0.43,0.54,0.71c0.14,0.28,0.22,0.57,0.22,0.88c0,0.66-0.25,1.3-0.76,1.9c-0.51,0.61-1.14,1.15-1.89,1.64
		c-0.75,0.49-1.56,0.87-2.42,1.16c-0.86,0.29-1.64,0.43-2.35,0.43c-0.97,0-1.87-0.19-2.7-0.56c-0.83-0.38-1.55-0.9-2.17-1.59
		c-0.62-0.68-1.1-1.5-1.46-2.45c-0.35-0.95-0.53-2-0.53-3.14c0-0.75,0.09-1.62,0.26-2.6c0.18-0.98,0.45-1.99,0.81-3.01
		c0.36-1.03,0.8-2.03,1.32-3.03c0.52-0.99,1.13-1.88,1.82-2.66c0.69-0.78,1.47-1.41,2.32-1.89c0.85-0.47,1.78-0.71,2.8-0.71
		c0.73,0,1.43,0.15,2.1,0.46C93.63,66.04,94.1,66.36,94.54,66.73z M85.97,92.08c-0.24,0.03-0.47,0.07-0.7,0.12
		c-1.31-0.22-2.58-0.15-3.78,0.16c-0.02-0.43-0.07-0.86-0.16-1.27c0.26-0.2,0.51-0.41,0.75-0.65c0.5,0.32,1.01,0.62,1.56,0.87
		C84.39,91.65,85.16,91.91,85.97,92.08z M79.12,52.72c0.1-0.74,0.25-1.5,0.46-2.27c0.21-0.77,0.49-1.54,0.85-2.28
		c0.36-0.75,0.79-1.41,1.3-1.99c0.51-0.58,1.1-1.05,1.77-1.41c0.68-0.36,1.45-0.54,2.33-0.54c0.36,0,0.73,0.04,1.12,0.13
		c0.39,0.09,0.76,0.2,1.12,0.34c0.38-0.37,0.86-0.55,1.46-0.55c0.54,0,1.01,0.17,1.42,0.52c0.41,0.34,0.61,0.75,0.61,1.23
		c0,1.92,0.06,3.83,0.18,5.74c0.12,1.91,0.16,3.89,0.12,5.93c-0.02,0.42-0.04,0.88-0.05,1.37c-0.01,0.49-0.08,0.94-0.21,1.35
		c-0.13,0.4-0.34,0.74-0.63,1.02c-0.29,0.27-0.72,0.41-1.3,0.41c-0.6,0-1.11-0.21-1.55-0.63c-0.14,0.12-0.34,0.23-0.6,0.32
		c-0.26,0.09-0.54,0.16-0.83,0.21c-0.3,0.05-0.59,0.09-0.88,0.11c-0.29,0.02-0.53,0.03-0.73,0.03c-0.99,0-1.87-0.21-2.62-0.63
		c-0.76-0.42-1.39-0.97-1.91-1.64c-0.52-0.67-0.91-1.42-1.18-2.26c-0.27-0.84-0.4-1.67-0.4-2.5C78.97,54.12,79.02,53.46,79.12,52.72
		z M60.04,44.6c0.31,0.18,0.54,0.41,0.7,0.71c0.5-0.33,1.03-0.58,1.61-0.73c0.58-0.15,1.16-0.2,1.74-0.16
		c0.59,0.04,1.15,0.19,1.68,0.44c0.54,0.25,1,0.61,1.4,1.08c0.58-0.46,1.2-0.84,1.88-1.16c0.68-0.32,1.4-0.48,2.18-0.48
		c0.93,0,1.72,0.15,2.36,0.45c0.64,0.3,1.15,0.7,1.55,1.2c0.4,0.5,0.68,1.08,0.85,1.74c0.17,0.66,0.25,1.35,0.25,2.07
		c0,1.13,0.02,2.26,0.06,3.39c0.04,1.14,0.06,2.34,0.06,3.6c0,0.44-0.01,0.93-0.03,1.46c-0.02,0.54-0.1,1.03-0.24,1.49
		c-0.14,0.46-0.36,0.84-0.67,1.16c-0.31,0.32-0.76,0.48-1.36,0.48s-1.07-0.19-1.43-0.57c-0.36-0.38-0.54-0.8-0.54-1.25
		c0-0.81,0.01-1.52,0.03-2.13c0.02-0.61,0.04-1.23,0.06-1.86c0.02-0.63,0.04-1.33,0.06-2.1c0.02-0.77,0.03-1.72,0.03-2.86
		c0-0.16,0-0.41,0-0.77c0-0.35-0.04-0.7-0.1-1.04c-0.07-0.34-0.19-0.62-0.36-0.83c-0.17-0.21-0.41-0.24-0.73-0.08
		c-0.14,0-0.31,0.05-0.51,0.16c-0.2,0.11-0.48,0.3-0.83,0.59c-0.36,0.29-0.81,0.73-1.34,1.31c0.16,1.58,0.25,3.16,0.27,4.74
		c0.02,1.57-0.07,3.22-0.27,4.92c-0.06,0.48-0.26,0.89-0.61,1.24c-0.35,0.35-0.81,0.53-1.39,0.53c-0.24,0-0.48-0.04-0.72-0.13
		c-0.24-0.09-0.45-0.21-0.64-0.36c-0.19-0.15-0.34-0.32-0.46-0.51c-0.12-0.19-0.18-0.4-0.18-0.63c0-0.86,0.05-1.76,0.13-2.68
		c0.09-0.92,0.16-1.86,0.21-2.8c0.05-0.94,0.05-1.87,0-2.8c-0.05-0.92-0.21-1.83-0.49-2.71c-0.14-0.55-0.35-0.81-0.63-0.78
		c-0.28,0.03-0.58,0.18-0.89,0.48c-0.32,0.29-0.63,0.63-0.92,1.02c-0.3,0.39-0.52,0.68-0.66,0.87c0.02,0.79,0.01,1.55-0.03,2.28
		c-0.04,0.73-0.08,1.46-0.12,2.18c-0.04,0.72-0.08,1.45-0.12,2.18c-0.04,0.73-0.06,1.49-0.06,2.28c0,0.28-0.04,0.56-0.11,0.83
		c-0.07,0.27-0.17,0.52-0.31,0.74c-0.14,0.22-0.31,0.4-0.51,0.53c-0.2,0.13-0.42,0.2-0.66,0.2c-0.26,0-0.52-0.06-0.78-0.18
		c-0.26-0.12-0.49-0.29-0.7-0.5c-0.21-0.21-0.38-0.45-0.52-0.71c-0.14-0.26-0.21-0.54-0.21-0.82c0-1.14,0.01-2.26,0.03-3.35
		c0.02-1.09,0.04-2.18,0.05-3.26c0.01-1.08,0-2.17-0.02-3.26c-0.02-1.09-0.06-2.21-0.12-3.35c0-0.49,0.2-0.91,0.6-1.25
		c0.4-0.34,0.86-0.51,1.4-0.51C59.38,44.34,59.73,44.43,60.04,44.6z M58.41,76.87c0.1,2.51,0.15,4.91,0.16,7.16
		c-0.23-0.04-0.44-0.11-0.68-0.14l-0.09-0.01c-0.17-0.02-0.34-0.04-0.51-0.06c-0.08-2.9-0.2-5.85-0.35-8.81
		c-0.14-2.82-0.27-5.72-0.39-8.63c0.58,0.24,1.17,0.4,1.78,0.48c-0.05,0.44-0.09,0.89-0.09,1.35C58.24,71.16,58.3,74.07,58.41,76.87
		z M60.36,97.43c-1.6,0.82-3.39,1.22-5.37,1.22s-3.94-0.05-5.88-0.15c-1.94-0.1-3.9-0.17-5.88-0.22c-1.98-0.05-4-0.05-6.05,0
		c-2.06,0.05-4.15,0.2-6.28,0.45c-2.06,0-3.83-0.48-5.31-1.45c-1.49-0.97-2.23-2.14-2.23-3.53c0-1.19,0.42-2.11,1.26-2.78
		c0.84-0.67,1.92-1.17,3.26-1.52c1.33-0.35,2.8-0.57,4.4-0.67c1.6-0.1,3.16-0.17,4.68-0.22c-0.08-4.4-0.23-8.83-0.46-13.28
		c-0.23-4.45-0.42-8.9-0.57-13.35c-0.15-4.45-0.23-8.89-0.23-13.32c0-4.42,0.15-8.86,0.45-13.32c-0.68,0.1-1.33,0.17-1.94,0.22
		c-0.61,0.05-1.26,0.07-1.94,0.07c-1.83,0-3.6-0.36-5.31-1.08c-1.71-0.72-2.57-1.92-2.57-3.6c0-1.09,0.49-2.14,1.49-3.15
		c0.99-1.01,2.36-1.6,4.11-1.74c4.04-0.4,8.05-0.64,12.05-0.74c4-0.1,8.05-0.15,12.17-0.15c2.43,0,4.26,0.51,5.48,1.52
		c1.22,1.01,1.83,2.16,1.83,3.45c0,1.73-0.84,2.98-2.51,3.75C57.31,34.62,54.76,35,51.33,35c-0.3,4.45-0.46,8.91-0.46,13.39
		c0,4.48,0.08,8.94,0.23,13.39c0.15,4.45,0.34,8.92,0.57,13.39c0.23,4.48,0.38,8.94,0.45,13.39c1.75,0.1,3.43,0.25,5.03,0.44
		c1.75,0.25,3.12,0.84,4.11,1.78c0.99,0.94,1.49,1.98,1.49,3.12C62.76,95.44,61.95,96.61,60.36,97.43z M75.89,110.37
		c-0.4,0.74-0.91,1.38-1.53,1.92c-0.62,0.54-1.3,0.96-2.05,1.28c-0.75,0.31-1.48,0.47-2.19,0.47c-0.66,0-1.3-0.13-1.92-0.38
		c-0.91-0.35-1.66-0.86-2.25-1.52c-0.59-0.66-1.05-1.39-1.39-2.21c-0.34-0.82-0.57-1.69-0.71-2.62c-0.13-0.93-0.2-1.84-0.2-2.73
		c0-1.43,0.11-2.9,0.33-4.41c0.22-1.51,0.54-2.95,0.96-4.34c0.25-0.83,0.58-1.65,0.99-2.48c0.4-0.83,0.9-1.57,1.48-2.24
		c0.58-0.67,1.25-1.21,2-1.63c0.75-0.42,1.58-0.63,2.49-0.63c0.51,0,1.02,0.09,1.53,0.28c0.51,0.19,0.98,0.45,1.39,0.78
		c0.41,0.34,0.75,0.74,1.02,1.21c0.27,0.47,0.4,0.99,0.4,1.57c0,0.42-0.13,0.82-0.4,1.2c-0.27,0.38-0.68,0.57-1.24,0.57
		c-0.32,0-0.61-0.1-0.87-0.3c-0.26-0.2-0.51-0.43-0.73-0.68c-0.23-0.25-0.45-0.5-0.67-0.73c-0.22-0.24-0.46-0.39-0.71-0.46
		c-0.25-0.07-0.53-0.01-0.82,0.16c-0.29,0.18-0.63,0.55-1,1.12l0.03-0.03c-0.54,0.78-0.98,1.61-1.33,2.5
		c-0.35,0.89-0.62,1.82-0.83,2.77c-0.21,0.95-0.36,1.92-0.44,2.91c-0.08,0.99-0.13,1.97-0.13,2.94c0,0.35,0.01,0.73,0.03,1.12
		c0.02,0.4,0.06,0.79,0.13,1.18c0.07,0.39,0.16,0.76,0.29,1.12c0.13,0.36,0.31,0.69,0.54,0.97c0.59,0.76,1.11,1.21,1.57,1.37
		c0.45,0.15,0.86,0.13,1.23-0.08c0.36-0.2,0.7-0.54,1.01-1c0.31-0.46,0.61-0.92,0.91-1.38c0.29-0.46,0.6-0.86,0.92-1.21
		c0.32-0.35,0.67-0.53,1.06-0.53c0.49,0,0.89,0.17,1.21,0.51c0.32,0.34,0.49,0.74,0.51,1.21C76.5,108.83,76.3,109.63,75.89,110.37z
		 M76.85,87.2c-0.77,0-1.36-0.26-1.77-0.78c-0.41-0.52-0.7-1.2-0.88-2.04s-0.28-1.78-0.3-2.81c-0.02-1.04-0.03-2.07-0.02-3.09
		c0.01-1.03,0-2-0.03-2.91c-0.03-0.92-0.14-1.66-0.31-2.23c-0.11-1.1-0.35-1.9-0.71-2.38c-0.36-0.48-0.79-0.73-1.29-0.73
		c-0.5,0-1.04,0.23-1.64,0.68c-0.6,0.45-1.17,1.08-1.72,1.87c0.13,2.03,0.25,4.06,0.35,6.09c0.1,2.03-0.01,4.11-0.31,6.25
		c-0.04,0.24-0.14,0.49-0.28,0.74c-0.14,0.25-0.31,0.48-0.51,0.68c-0.2,0.2-0.43,0.36-0.68,0.5c-0.25,0.13-0.5,0.2-0.74,0.2
		c-0.38,0-0.69-0.09-0.96-0.28c-0.26-0.19-0.49-0.43-0.66-0.71c-0.18-0.29-0.31-0.6-0.4-0.93c-0.09-0.33-0.13-0.64-0.13-0.93
		c0-2.47-0.06-5.08-0.17-7.82c-0.11-2.75-0.16-5.56-0.16-8.45c0-0.4,0.03-0.78,0.1-1.14c0.07-0.36,0.18-0.69,0.35-0.98
		c0.16-0.29,0.4-0.51,0.69-0.68c0.3-0.17,0.67-0.25,1.11-0.25c0.51,0,0.97,0.16,1.39,0.48c0.42,0.32,0.68,0.73,0.79,1.24
		c0.62-0.37,1.17-0.66,1.67-0.86c0.5-0.2,1.06-0.3,1.7-0.3c1.3,0,2.39,0.31,3.27,0.93c0.88,0.62,1.59,1.41,2.12,2.37
		c0.53,0.96,0.92,2.02,1.16,3.19s0.39,2.31,0.43,3.41c0.13,1.12,0.25,2.13,0.35,3.03c0.1,0.89,0.18,1.72,0.25,2.47
		c0.07,0.75,0.12,1.44,0.15,2.07c0.03,0.63,0.05,1.24,0.05,1.84c0,0.62-0.22,1.15-0.65,1.6S77.49,87.2,76.85,87.2z M88.88,111.33
		c-0.01,0.47-0.07,0.9-0.18,1.29c-0.11,0.39-0.29,0.71-0.53,0.97c-0.24,0.26-0.61,0.39-1.1,0.39c-0.51,0-0.94-0.2-1.31-0.61
		c-0.12,0.12-0.29,0.22-0.51,0.3c-0.22,0.08-0.45,0.15-0.71,0.2c-0.25,0.05-0.5,0.08-0.75,0.1c-0.24,0.02-0.45,0.03-0.62,0.03
		c-0.84,0-1.58-0.2-2.22-0.61c-0.64-0.4-1.18-0.93-1.62-1.57c-0.44-0.64-0.77-1.36-1-2.16c-0.23-0.8-0.34-1.6-0.34-2.39
		c0-0.56,0.04-1.19,0.13-1.9c0.08-0.71,0.21-1.43,0.39-2.17c0.18-0.74,0.42-1.47,0.72-2.19c0.3-0.72,0.67-1.35,1.1-1.91
		c0.43-0.56,0.93-1.01,1.5-1.35c0.57-0.35,1.23-0.52,1.97-0.52c0.3,0,0.62,0.04,0.95,0.13c0.33,0.08,0.64,0.19,0.95,0.33
		c0.32-0.35,0.73-0.53,1.24-0.53c0.45,0,0.86,0.16,1.2,0.49c0.35,0.33,0.52,0.72,0.52,1.18c0,1.84,0.05,3.67,0.15,5.5
		c0.1,1.83,0.13,3.72,0.1,5.67C88.9,110.42,88.89,110.86,88.88,111.33z M88.93,92.33c1.15-0.05,2.35-0.27,3.6-0.68
		c1.27-0.42,2.49-1.01,3.62-1.74c0.02-0.01,0.04-0.03,0.06-0.05c-0.04,0.29-0.08,0.57-0.08,0.87c0,0.75-0.01,1.51-0.01,2.26
		c-0.47-0.02-0.94-0.02-1.42,0.02c-1.56-0.85-3.51-1.05-5.25-0.53C89.28,92.41,89.1,92.38,88.93,92.33z M99.45,102.8
		c-0.06,0.33-0.16,0.62-0.3,0.88c-0.14,0.26-0.33,0.48-0.57,0.64c-0.24,0.17-0.54,0.25-0.91,0.25c-0.51,0-0.91-0.18-1.23-0.54
		c-0.31-0.36-0.47-0.76-0.47-1.2c0-0.1,0.02-0.22,0.06-0.34c0.04-0.13,0.08-0.25,0.1-0.37c0.03-0.12,0.03-0.23,0-0.33
		c-0.03-0.1-0.1-0.18-0.21-0.23c-0.51,0-0.93,0.06-1.28,0.19c-0.35,0.13-0.63,0.27-0.85,0.44c-0.22,0.17-0.38,0.33-0.49,0.49
		c-0.11,0.16-0.17,0.27-0.19,0.34c0.08,1.55,0.1,3.1,0.06,4.64c-0.04,1.54-0.06,3.1-0.06,4.66c0,0.56-0.18,0.97-0.53,1.25
		c-0.35,0.28-0.75,0.42-1.19,0.42s-0.83-0.14-1.19-0.42c-0.35-0.28-0.53-0.7-0.53-1.25v-13.4c0-0.22,0.05-0.43,0.15-0.62
		c0.1-0.19,0.24-0.36,0.4-0.51c0.17-0.14,0.35-0.26,0.56-0.34c0.2-0.08,0.4-0.13,0.61-0.13c0.44,0,0.8,0.14,1.09,0.42
		c0.29,0.28,0.48,0.61,0.58,1c0.4-0.19,0.82-0.34,1.25-0.46c0.43-0.12,0.86-0.18,1.3-0.18c0.54,0,1.04,0.08,1.52,0.25
		c0.47,0.17,0.88,0.41,1.24,0.73c0.35,0.32,0.64,0.71,0.85,1.16c0.21,0.45,0.32,0.97,0.32,1.54
		C99.54,102.15,99.51,102.47,99.45,102.8z M104.72,101.46c-0.08,3.58-0.11,7.2-0.11,10.86c0,0.57-0.18,1-0.54,1.28
		c-0.36,0.28-0.76,0.42-1.19,0.42c-0.43,0-0.83-0.14-1.18-0.42c-0.35-0.28-0.53-0.7-0.53-1.28c0-3.66,0.04-7.28,0.11-10.86
		c0.08-3.58,0.11-7.19,0.11-10.83c0-0.49,0.16-0.9,0.49-1.24c0.33-0.34,0.73-0.51,1.22-0.51c0.48,0,0.89,0.17,1.22,0.51
		c0.33,0.34,0.5,0.75,0.52,1.24C104.83,94.27,104.8,97.88,104.72,101.46z M116.61,111.58c-0.19,0.49-0.46,0.91-0.8,1.28
		c-0.34,0.36-0.74,0.64-1.21,0.85c-0.47,0.2-0.99,0.3-1.57,0.3c-0.74,0-1.45-0.14-2.11-0.4c-0.67-0.27-1.29-0.62-1.86-1.06
		c-0.19-0.15-0.38-0.33-0.58-0.53c-0.2-0.2-0.39-0.43-0.57-0.68c-0.18-0.25-0.32-0.52-0.43-0.81c-0.11-0.29-0.16-0.57-0.16-0.86
		c0-0.56,0.17-1,0.52-1.33c0.35-0.33,0.75-0.49,1.2-0.49c0.4,0,0.71,0.08,0.92,0.23c0.21,0.15,0.38,0.33,0.51,0.54
		c0.13,0.21,0.24,0.44,0.34,0.68c0.1,0.24,0.25,0.46,0.45,0.64c0.12,0.24,0.35,0.41,0.7,0.53c0.35,0.12,0.67,0.16,0.97,0.11
		c0.3-0.04,0.52-0.17,0.66-0.39c0.13-0.22,0.05-0.55-0.25-0.99c-0.42-0.78-0.96-1.48-1.62-2.11c-0.66-0.63-1.3-1.29-1.92-1.96
		c-0.62-0.67-1.16-1.4-1.61-2.17c-0.45-0.77-0.67-1.69-0.67-2.75c0-0.46,0.08-0.91,0.23-1.35c0.15-0.45,0.38-0.86,0.7-1.23
		c0.31-0.37,0.7-0.67,1.18-0.9c0.47-0.23,1.03-0.34,1.67-0.34c0.54,0,1.07,0.09,1.61,0.27c0.53,0.18,1.01,0.42,1.44,0.73
		c0.43,0.31,0.78,0.69,1.05,1.14c0.27,0.45,0.4,0.93,0.4,1.45c0,0.3-0.04,0.59-0.13,0.86c-0.08,0.27-0.21,0.51-0.37,0.72
		c-0.16,0.21-0.35,0.38-0.58,0.51c-0.23,0.13-0.48,0.19-0.75,0.19c-0.47,0-0.88-0.17-1.23-0.52c-0.35-0.34-0.52-0.75-0.52-1.23
		c0-0.3-0.1-0.48-0.3-0.53c-0.2-0.05-0.39,0-0.56,0.14c-0.17,0.14-0.27,0.38-0.32,0.7c-0.04,0.32,0.1,0.72,0.44,1.19
		c0.44,0.67,0.97,1.29,1.59,1.86c0.62,0.56,1.22,1.14,1.78,1.73c0.56,0.59,1.04,1.23,1.44,1.93c0.4,0.7,0.59,1.52,0.59,2.46
		C116.9,110.56,116.81,111.09,116.61,111.58z"/>
	<path class="st1" d="M57.16,89.11c-1.6-0.2-3.28-0.35-5.03-0.44c-0.08-4.45-0.23-8.91-0.45-13.39c-0.23-4.47-0.42-8.94-0.57-13.39
		c-0.15-4.45-0.23-8.91-0.23-13.39c0-4.48,0.15-8.94,0.46-13.39c3.43,0,5.98-0.38,7.65-1.15c1.67-0.77,2.51-2.01,2.51-3.75
		c0-1.29-0.61-2.44-1.83-3.45c-1.22-1.01-3.05-1.52-5.48-1.52c-4.11,0-8.17,0.05-12.17,0.15c-4,0.1-8.01,0.35-12.05,0.74
		c-1.75,0.15-3.12,0.73-4.11,1.74c-0.99,1.01-1.49,2.07-1.49,3.15c0,1.68,0.86,2.88,2.57,3.6c1.71,0.72,3.49,1.08,5.31,1.08
		c0.68,0,1.33-0.02,1.94-0.07c0.61-0.05,1.26-0.12,1.94-0.22c-0.3,4.45-0.45,8.89-0.45,13.32c0,4.43,0.08,8.87,0.23,13.32
		c0.15,4.45,0.34,8.9,0.57,13.35c0.23,4.45,0.38,8.88,0.46,13.28c-1.53,0.05-3.09,0.12-4.68,0.22c-1.6,0.1-3.07,0.32-4.4,0.67
		c-1.34,0.35-2.42,0.85-3.26,1.52c-0.84,0.67-1.26,1.6-1.26,2.78c0,1.38,0.74,2.56,2.23,3.53c1.48,0.96,3.25,1.45,5.31,1.45
		c2.13-0.25,4.22-0.4,6.28-0.45c2.05-0.05,4.07-0.05,6.05,0c1.98,0.05,3.94,0.12,5.88,0.22c1.94,0.1,3.9,0.15,5.88,0.15
		c1.98,0,3.77-0.41,5.37-1.22c1.6-0.82,2.4-1.99,2.4-3.52c0-1.14-0.5-2.18-1.49-3.12C60.28,89.95,58.91,89.36,57.16,89.11z"/>
	<path class="st1" d="M74.78,106.35c-0.39,0-0.74,0.18-1.06,0.53c-0.32,0.35-0.63,0.76-0.92,1.21c-0.3,0.46-0.6,0.91-0.91,1.38
		c-0.31,0.46-0.65,0.8-1.01,1c-0.36,0.2-0.77,0.23-1.23,0.08c-0.46-0.15-0.98-0.61-1.57-1.37c-0.24-0.29-0.42-0.61-0.54-0.97
		c-0.13-0.36-0.22-0.74-0.29-1.13c-0.07-0.39-0.11-0.78-0.13-1.18c-0.02-0.4-0.03-0.77-0.03-1.12c0-0.98,0.04-1.96,0.13-2.94
		c0.08-0.99,0.23-1.95,0.44-2.91c0.21-0.95,0.49-1.87,0.83-2.77c0.35-0.89,0.79-1.73,1.33-2.5l-0.03,0.03c0.37-0.57,0.7-0.95,1-1.12
		c0.29-0.18,0.57-0.23,0.82-0.16c0.25,0.07,0.49,0.22,0.71,0.46c0.22,0.24,0.44,0.48,0.67,0.73c0.23,0.25,0.47,0.48,0.73,0.68
		c0.26,0.2,0.55,0.3,0.87,0.3c0.56,0,0.97-0.19,1.24-0.57c0.27-0.38,0.4-0.78,0.4-1.2c0-0.57-0.13-1.1-0.4-1.57
		c-0.27-0.47-0.61-0.88-1.02-1.21s-0.88-0.6-1.39-0.78c-0.51-0.19-1.02-0.28-1.53-0.28c-0.91,0-1.74,0.21-2.49,0.63
		c-0.75,0.42-1.42,0.96-2,1.63c-0.58,0.67-1.07,1.41-1.48,2.24c-0.4,0.83-0.73,1.65-0.99,2.48c-0.42,1.38-0.74,2.83-0.96,4.34
		c-0.22,1.51-0.33,2.98-0.33,4.41c0,0.89,0.07,1.8,0.2,2.73c0.13,0.93,0.37,1.8,0.71,2.62c0.34,0.82,0.8,1.55,1.39,2.21
		c0.59,0.66,1.34,1.16,2.25,1.52c0.62,0.25,1.26,0.38,1.92,0.38c0.71,0,1.44-0.16,2.19-0.47c0.75-0.31,1.43-0.74,2.05-1.28
		c0.61-0.54,1.12-1.18,1.53-1.92c0.4-0.74,0.61-1.54,0.61-2.4c-0.02-0.47-0.19-0.88-0.51-1.21
		C75.67,106.52,75.27,106.35,74.78,106.35z"/>
	<path class="st1" d="M57.58,44.95c-0.4,0.34-0.6,0.76-0.6,1.25c0.06,1.14,0.1,2.26,0.12,3.35c0.02,1.09,0.02,2.18,0.02,3.26
		c-0.01,1.08-0.03,2.17-0.05,3.26c-0.02,1.09-0.03,2.21-0.03,3.35c0,0.28,0.07,0.55,0.21,0.82c0.14,0.26,0.31,0.5,0.52,0.71
		c0.21,0.21,0.44,0.38,0.7,0.5c0.26,0.12,0.52,0.18,0.78,0.18c0.24,0,0.46-0.07,0.66-0.2c0.2-0.13,0.37-0.31,0.51-0.53
		c0.14-0.22,0.24-0.47,0.31-0.74c0.07-0.27,0.11-0.55,0.11-0.83c0-0.79,0.02-1.55,0.06-2.28c0.04-0.73,0.08-1.46,0.12-2.18
		c0.04-0.72,0.08-1.45,0.12-2.18c0.04-0.73,0.05-1.49,0.03-2.28c0.14-0.19,0.36-0.48,0.66-0.87c0.3-0.39,0.61-0.73,0.92-1.02
		c0.32-0.29,0.62-0.45,0.89-0.48c0.28-0.03,0.49,0.23,0.63,0.78c0.28,0.88,0.44,1.78,0.49,2.71c0.05,0.92,0.05,1.86,0,2.8
		c-0.05,0.94-0.12,1.87-0.21,2.8c-0.09,0.92-0.13,1.82-0.13,2.68c0,0.23,0.06,0.44,0.18,0.63c0.12,0.19,0.27,0.36,0.46,0.51
		c0.19,0.15,0.4,0.27,0.64,0.36c0.24,0.09,0.48,0.13,0.72,0.13c0.58,0,1.04-0.18,1.39-0.53c0.35-0.35,0.55-0.77,0.61-1.24
		c0.2-1.71,0.29-3.35,0.27-4.92c-0.02-1.57-0.11-3.15-0.27-4.74c0.54-0.58,0.98-1.02,1.34-1.31c0.36-0.29,0.64-0.49,0.83-0.59
		c0.2-0.11,0.37-0.16,0.51-0.16c0.32-0.16,0.56-0.13,0.73,0.08c0.17,0.21,0.29,0.49,0.36,0.83c0.07,0.34,0.1,0.69,0.1,1.04
		s0,0.61,0,0.77c0,1.14-0.01,2.1-0.03,2.86c-0.02,0.77-0.04,1.47-0.06,2.1c-0.02,0.63-0.04,1.25-0.06,1.86
		c-0.02,0.61-0.03,1.32-0.03,2.13c0,0.46,0.18,0.88,0.54,1.25c0.36,0.38,0.83,0.57,1.43,0.57c0.6,0,1.05-0.16,1.36-0.48
		c0.31-0.32,0.53-0.7,0.67-1.16c0.14-0.46,0.22-0.96,0.24-1.49c0.02-0.54,0.03-1.03,0.03-1.46c0-1.27-0.02-2.47-0.06-3.6
		c-0.04-1.14-0.06-2.27-0.06-3.39c0-0.72-0.08-1.41-0.25-2.07c-0.17-0.66-0.45-1.24-0.85-1.74c-0.4-0.5-0.92-0.9-1.55-1.2
		c-0.64-0.3-1.42-0.45-2.36-0.45c-0.78,0-1.5,0.16-2.18,0.48c-0.68,0.32-1.3,0.7-1.88,1.16c-0.4-0.47-0.87-0.84-1.4-1.08
		c-0.54-0.25-1.1-0.39-1.68-0.44c-0.59-0.04-1.17,0.01-1.74,0.16c-0.58,0.15-1.11,0.39-1.61,0.73c-0.16-0.3-0.39-0.54-0.7-0.71
		c-0.31-0.18-0.66-0.26-1.06-0.26C58.44,44.44,57.97,44.61,57.58,44.95z"/>
	<path class="st1" d="M79.1,85.02c0-0.6-0.02-1.21-0.05-1.84c-0.03-0.63-0.08-1.32-0.15-2.07s-0.15-1.57-0.25-2.47
		c-0.1-0.89-0.22-1.9-0.35-3.03c-0.04-1.1-0.19-2.24-0.43-3.41c-0.24-1.17-0.63-2.23-1.16-3.19c-0.53-0.96-1.24-1.75-2.12-2.37
		c-0.88-0.62-1.97-0.93-3.27-0.93c-0.64,0-1.21,0.1-1.7,0.3c-0.5,0.2-1.05,0.49-1.67,0.86c-0.11-0.51-0.38-0.92-0.79-1.24
		c-0.42-0.32-0.88-0.48-1.39-0.48c-0.44,0-0.81,0.08-1.11,0.25c-0.3,0.17-0.53,0.39-0.69,0.68c-0.17,0.29-0.28,0.61-0.35,0.98
		c-0.07,0.36-0.1,0.74-0.1,1.14c0,2.89,0.05,5.71,0.16,8.45c0.11,2.75,0.17,5.35,0.17,7.82c0,0.29,0.04,0.6,0.13,0.93
		c0.09,0.33,0.22,0.64,0.4,0.93c0.18,0.29,0.4,0.52,0.66,0.71c0.27,0.19,0.58,0.28,0.96,0.28c0.24,0,0.49-0.07,0.74-0.2
		c0.25-0.13,0.48-0.3,0.68-0.5c0.2-0.2,0.37-0.42,0.51-0.68c0.14-0.25,0.24-0.5,0.28-0.74c0.31-2.14,0.41-4.22,0.31-6.25
		c-0.1-2.03-0.22-4.06-0.35-6.09c0.55-0.79,1.12-1.42,1.72-1.87c0.6-0.45,1.14-0.68,1.64-0.68c0.5,0,0.93,0.24,1.29,0.73
		c0.36,0.49,0.6,1.28,0.71,2.38c0.18,0.57,0.28,1.32,0.31,2.23c0.03,0.92,0.04,1.89,0.03,2.91c-0.01,1.03-0.01,2.06,0.02,3.09
		c0.02,1.04,0.12,1.97,0.3,2.81c0.18,0.84,0.47,1.52,0.88,2.04c0.41,0.52,1,0.78,1.77,0.78c0.64,0,1.17-0.23,1.6-0.68
		C78.89,86.17,79.1,85.63,79.1,85.02z"/>
	<path class="st1" d="M88.2,66.14c-0.85,0.47-1.62,1.1-2.32,1.89c-0.69,0.78-1.3,1.67-1.82,2.66c-0.52,0.99-0.96,2-1.32,3.03
		c-0.36,1.03-0.63,2.03-0.81,3.01c-0.18,0.98-0.26,1.85-0.26,2.6c0,1.15,0.18,2.19,0.53,3.14c0.35,0.95,0.84,1.76,1.46,2.45
		c0.62,0.68,1.34,1.21,2.17,1.59c0.83,0.37,1.73,0.56,2.7,0.56c0.71,0,1.49-0.14,2.35-0.43c0.86-0.29,1.66-0.67,2.42-1.16
		c0.75-0.49,1.38-1.03,1.89-1.64c0.51-0.61,0.76-1.24,0.76-1.9c0-0.31-0.07-0.6-0.22-0.88c-0.14-0.28-0.33-0.51-0.54-0.71
		c-0.22-0.2-0.47-0.36-0.75-0.48c-0.28-0.12-0.55-0.18-0.81-0.18c-0.51,0-0.95,0.15-1.34,0.46c-0.39,0.31-0.77,0.66-1.16,1.04
		c-0.39,0.39-0.79,0.73-1.22,1.04c-0.43,0.31-0.94,0.46-1.54,0.46c-0.53,0-0.94-0.15-1.22-0.45c-0.29-0.3-0.5-0.66-0.64-1.09
		c-0.14-0.43-0.23-0.88-0.27-1.34c-0.03-0.46-0.05-0.87-0.05-1.22c0.73,0.18,1.49,0.22,2.28,0.12c0.79-0.1,1.58-0.3,2.35-0.61
		c0.77-0.31,1.51-0.71,2.2-1.21c0.69-0.5,1.31-1.05,1.84-1.67c0.53-0.62,0.95-1.28,1.26-2c0.31-0.72,0.46-1.45,0.46-2.2
		c0-0.75-0.15-1.46-0.45-2.13c-0.02-0.05-0.05-0.08-0.07-0.13c0.08,0.05,0.15,0.11,0.24,0.15c0.51,0.27,1.04,0.48,1.61,0.62
		c0.57,0.14,1.08,0.21,1.54,0.21c1.19,0,2.2-0.22,3.03-0.65c0.83-0.43,1.52-0.98,2.07-1.65c0.56-0.67,1-1.42,1.34-2.24
		c0.34-0.83,0.6-1.63,0.78-2.4c0.28-1.14,0.47-2.3,0.57-3.46c0.1-1.16,0.14-2.32,0.12-3.49c0-1.06-0.01-2.03-0.03-2.92
		c-0.02-0.89-0.05-1.73-0.08-2.52c-0.03-0.79-0.05-1.55-0.07-2.27c-0.02-0.72-0.03-1.44-0.03-2.17c0-0.56-0.2-0.99-0.61-1.27
		c-0.41-0.28-0.86-0.42-1.36-0.42c-0.34,0-0.67,0.07-0.98,0.2c-0.32,0.13-0.57,0.34-0.74,0.62c-0.34-0.18-0.69-0.32-1.06-0.44
		c-0.37-0.11-0.74-0.17-1.12-0.17c-0.99,0-1.85,0.23-2.56,0.69c-0.72,0.46-1.32,1.04-1.82,1.74c-0.5,0.7-0.89,1.48-1.19,2.32
		c-0.3,0.84-0.53,1.66-0.7,2.46c-0.17,0.79-0.28,1.5-0.34,2.13c-0.06,0.62-0.09,1.06-0.09,1.31c0,1.06,0.23,2.03,0.7,2.92
		c0.47,0.89,1.09,1.62,1.86,2.2c0.77,0.58,1.67,0.96,2.68,1.15c1.01,0.18,2.08,0.1,3.19-0.25c-0.1,0.47-0.22,1.01-0.37,1.61
		c-0.15,0.6-0.37,1.16-0.66,1.69c-0.29,0.53-0.66,0.97-1.1,1.32c-0.45,0.35-1.03,0.51-1.74,0.47c-0.3-0.09-0.56-0.21-0.79-0.36
		c-0.23-0.15-0.45-0.3-0.67-0.45c-0.22-0.15-0.44-0.28-0.67-0.38c-0.23-0.11-0.49-0.16-0.79-0.16c-0.56,0-0.97,0.17-1.25,0.5
		c-0.28,0.33-0.42,0.73-0.42,1.19c0,0.08,0.03,0.15,0.04,0.23c-0.44-0.37-0.91-0.7-1.45-0.94c-0.67-0.31-1.37-0.46-2.1-0.46
		C89.98,65.43,89.04,65.67,88.2,66.14z M102.73,57.42c-0.2,0.18-0.4,0.31-0.61,0.4c-0.21,0.09-0.43,0.14-0.66,0.15
		c-0.23,0.01-0.47,0.01-0.73,0.01c-0.8-0.09-1.37-0.42-1.71-0.99c-0.35-0.57-0.52-1.23-0.52-1.97c0-0.6,0.05-1.21,0.16-1.83
		c0.11-0.62,0.26-1.23,0.46-1.82c0.2-0.59,0.44-1.16,0.73-1.7c0.29-0.55,0.62-1.05,1-1.5c0.36-0.14,0.66-0.18,0.89-0.12
		c0.24,0.06,0.45,0.18,0.63,0.37c0.18,0.18,0.33,0.4,0.46,0.63c0.13,0.24,0.25,0.46,0.37,0.67c0.04,1.27,0.08,2.46,0.11,3.58
		c0.03,1.12,0.04,2.23,0.04,3.34C103.13,56.98,102.93,57.24,102.73,57.42z M91.95,70.39h-0.03c0.18,0.13,0.26,0.31,0.26,0.53
		c0,0.22-0.07,0.46-0.2,0.71c-0.13,0.25-0.31,0.5-0.53,0.74c-0.22,0.24-0.45,0.44-0.69,0.6c-0.64,0.51-1.25,0.86-1.84,1.06
		c-0.58,0.2-1.13,0.3-1.64,0.3c0.02-0.2,0.1-0.43,0.23-0.69c0.13-0.26,0.28-0.52,0.45-0.78c0.17-0.25,0.33-0.5,0.5-0.74
		c0.17-0.24,0.3-0.45,0.41-0.63c0.27-0.29,0.51-0.56,0.75-0.83c0.23-0.26,0.46-0.46,0.69-0.6c0.23-0.13,0.48-0.18,0.74-0.15
		C91.32,69.95,91.62,70.11,91.95,70.39z"/>
	<path class="st1" d="M80.55,59.55c0.52,0.67,1.15,1.21,1.91,1.64c0.76,0.42,1.63,0.63,2.62,0.63c0.2,0,0.44-0.01,0.73-0.03
		c0.29-0.02,0.58-0.05,0.88-0.11c0.3-0.05,0.58-0.12,0.83-0.21c0.26-0.09,0.46-0.19,0.6-0.32c0.44,0.42,0.95,0.63,1.55,0.63
		c0.58,0,1.01-0.14,1.3-0.41c0.29-0.27,0.5-0.61,0.63-1.02c0.13-0.41,0.2-0.85,0.21-1.35c0.01-0.49,0.02-0.95,0.05-1.37
		c0.04-2.04,0-4.02-0.12-5.93c-0.12-1.91-0.18-3.82-0.18-5.74c0-0.48-0.2-0.88-0.61-1.23c-0.41-0.34-0.88-0.52-1.42-0.52
		c-0.6,0-1.08,0.18-1.46,0.55c-0.36-0.14-0.73-0.25-1.12-0.34c-0.39-0.09-0.76-0.13-1.12-0.13c-0.88,0-1.65,0.18-2.33,0.54
		c-0.68,0.36-1.27,0.83-1.77,1.41c-0.51,0.58-0.94,1.25-1.3,1.99c-0.36,0.75-0.64,1.51-0.85,2.28c-0.21,0.77-0.36,1.53-0.46,2.27
		c-0.1,0.74-0.15,1.4-0.15,1.98c0,0.83,0.13,1.66,0.4,2.5C79.64,58.13,80.03,58.88,80.55,59.55z M83.11,53.11
		c0.06-0.62,0.17-1.22,0.34-1.82c0.17-0.6,0.39-1.17,0.67-1.7c0.28-0.54,0.64-1,1.07-1.39c0.24-0.21,0.47-0.3,0.7-0.26
		c0.23,0.04,0.44,0.12,0.64,0.26c0.2,0.14,0.38,0.31,0.55,0.52c0.17,0.2,0.31,0.37,0.43,0.49c0.06,1.3,0.12,2.59,0.19,3.87
		c0.07,1.28,0.1,2.56,0.1,3.84c-0.12,0.16-0.31,0.33-0.57,0.53c-0.26,0.19-0.52,0.36-0.79,0.5c-0.27,0.14-0.51,0.25-0.73,0.32
		c-0.22,0.07-0.36,0.06-0.42-0.03c-0.48-0.02-0.87-0.15-1.18-0.38c-0.31-0.24-0.54-0.52-0.7-0.86c-0.16-0.33-0.27-0.7-0.33-1.08
		c-0.06-0.39-0.09-0.74-0.09-1.06C83.02,54.31,83.05,53.73,83.11,53.11z"/>
	<path class="st1" d="M103.1,88.99c-0.49,0-0.89,0.17-1.22,0.51c-0.33,0.34-0.49,0.75-0.49,1.24c0,3.64-0.04,7.25-0.11,10.83
		c-0.08,3.58-0.11,7.2-0.11,10.86c0,0.57,0.18,1,0.53,1.28c0.35,0.28,0.74,0.42,1.18,0.42c0.44,0,0.83-0.14,1.19-0.42
		c0.36-0.28,0.54-0.7,0.54-1.28c0-3.66,0.04-7.28,0.11-10.86c0.08-3.58,0.11-7.19,0.11-10.83c-0.02-0.49-0.19-0.9-0.52-1.24
		C103.99,89.16,103.59,88.99,103.1,88.99z"/>
	<path class="st1" d="M98.38,99.22c-0.35-0.32-0.77-0.56-1.24-0.73c-0.47-0.17-0.98-0.25-1.52-0.25c-0.44,0-0.87,0.06-1.3,0.18
		c-0.43,0.12-0.85,0.27-1.25,0.46c-0.1-0.39-0.29-0.72-0.58-1c-0.29-0.28-0.65-0.42-1.09-0.42c-0.2,0-0.4,0.04-0.61,0.13
		c-0.2,0.08-0.39,0.2-0.56,0.34c-0.17,0.14-0.3,0.31-0.4,0.51c-0.1,0.19-0.15,0.4-0.15,0.62v13.4c0,0.56,0.18,0.97,0.53,1.25
		c0.35,0.28,0.75,0.42,1.19,0.42c0.44,0,0.83-0.14,1.19-0.42c0.35-0.28,0.53-0.7,0.53-1.25c0-1.57,0.02-3.12,0.06-4.66
		c0.04-1.54,0.02-3.09-0.06-4.64c0.02-0.07,0.08-0.18,0.19-0.34c0.11-0.16,0.27-0.32,0.49-0.49c0.22-0.17,0.5-0.32,0.85-0.44
		c0.35-0.13,0.77-0.19,1.28-0.19c0.12,0.05,0.19,0.13,0.21,0.23c0.03,0.1,0.03,0.21,0,0.33c-0.03,0.12-0.06,0.24-0.1,0.37
		c-0.04,0.13-0.06,0.24-0.06,0.34c0,0.44,0.16,0.84,0.47,1.2c0.31,0.36,0.72,0.54,1.23,0.54c0.37,0,0.67-0.08,0.91-0.25
		c0.24-0.17,0.42-0.38,0.57-0.64c0.14-0.26,0.24-0.56,0.3-0.88c0.06-0.33,0.09-0.65,0.09-0.97c0-0.57-0.1-1.09-0.32-1.54
		C99.01,99.93,98.73,99.54,98.38,99.22z"/>
	<path class="st1" d="M114.87,105.7c-0.56-0.59-1.16-1.17-1.78-1.73c-0.62-0.56-1.16-1.18-1.59-1.86c-0.34-0.47-0.48-0.87-0.44-1.19
		c0.04-0.32,0.15-0.55,0.32-0.7c0.17-0.14,0.35-0.19,0.56-0.14c0.2,0.05,0.3,0.23,0.3,0.53c0,0.47,0.17,0.88,0.52,1.23
		c0.35,0.35,0.75,0.52,1.23,0.52c0.27,0,0.52-0.06,0.75-0.19c0.23-0.13,0.42-0.29,0.58-0.51c0.16-0.21,0.28-0.45,0.37-0.72
		c0.08-0.27,0.13-0.56,0.13-0.86c0-0.52-0.14-1.01-0.4-1.45c-0.27-0.45-0.62-0.83-1.05-1.14c-0.43-0.31-0.91-0.56-1.44-0.73
		c-0.53-0.18-1.07-0.27-1.61-0.27c-0.64,0-1.2,0.11-1.67,0.34c-0.47,0.23-0.86,0.53-1.18,0.9c-0.31,0.37-0.54,0.78-0.7,1.23
		c-0.15,0.45-0.23,0.9-0.23,1.35c0,1.06,0.22,1.98,0.67,2.75c0.45,0.78,0.98,1.5,1.61,2.17c0.62,0.67,1.26,1.33,1.92,1.96
		c0.66,0.63,1.2,1.34,1.62,2.11c0.3,0.44,0.39,0.77,0.25,0.99c-0.14,0.22-0.35,0.35-0.66,0.39c-0.3,0.04-0.63,0-0.97-0.11
		c-0.35-0.12-0.58-0.3-0.7-0.53c-0.2-0.19-0.35-0.4-0.45-0.64c-0.1-0.24-0.22-0.47-0.34-0.68c-0.13-0.21-0.3-0.39-0.51-0.54
		c-0.21-0.15-0.52-0.23-0.92-0.23c-0.46,0-0.86,0.16-1.2,0.49c-0.35,0.33-0.52,0.77-0.52,1.33c0,0.29,0.05,0.57,0.16,0.86
		c0.11,0.29,0.25,0.56,0.43,0.81c0.18,0.25,0.37,0.48,0.57,0.68c0.2,0.2,0.4,0.38,0.58,0.53c0.57,0.44,1.19,0.79,1.86,1.06
		c0.67,0.27,1.37,0.4,2.11,0.4c0.57,0,1.09-0.1,1.57-0.3c0.47-0.2,0.88-0.48,1.21-0.85c0.34-0.36,0.6-0.79,0.8-1.28
		c0.19-0.49,0.29-1.02,0.29-1.59c0-0.94-0.2-1.77-0.59-2.46C115.91,106.93,115.43,106.29,114.87,105.7z"/>
	<path class="st1" d="M88.67,98.95c0-0.46-0.17-0.85-0.52-1.18c-0.35-0.33-0.75-0.49-1.2-0.49c-0.51,0-0.92,0.18-1.24,0.53
		c-0.3-0.13-0.62-0.24-0.95-0.33c-0.33-0.08-0.65-0.13-0.95-0.13c-0.74,0-1.4,0.17-1.97,0.52c-0.57,0.35-1.07,0.8-1.5,1.35
		c-0.43,0.56-0.8,1.19-1.1,1.91c-0.3,0.72-0.54,1.45-0.72,2.19c-0.18,0.74-0.31,1.47-0.39,2.17c-0.08,0.71-0.13,1.34-0.13,1.9
		c0,0.79,0.11,1.59,0.34,2.39c0.23,0.8,0.56,1.52,1,2.16c0.44,0.64,0.98,1.16,1.62,1.57c0.64,0.4,1.38,0.61,2.22,0.61
		c0.17,0,0.38-0.01,0.62-0.03c0.24-0.02,0.49-0.05,0.75-0.1c0.25-0.05,0.49-0.12,0.71-0.2c0.22-0.08,0.39-0.19,0.51-0.3
		c0.37,0.4,0.81,0.61,1.31,0.61c0.49,0,0.86-0.13,1.1-0.39c0.24-0.26,0.42-0.59,0.53-0.97c0.11-0.39,0.17-0.82,0.18-1.29
		c0.01-0.47,0.02-0.91,0.04-1.31c0.03-1.95,0-3.85-0.1-5.67C88.72,102.62,88.67,100.78,88.67,98.95z M85.03,109.92
		c-0.22,0.18-0.44,0.34-0.67,0.48c-0.23,0.13-0.43,0.24-0.62,0.3c-0.19,0.07-0.3,0.06-0.35-0.03c-0.4-0.02-0.74-0.14-1-0.37
		c-0.26-0.23-0.46-0.5-0.59-0.82c-0.13-0.32-0.23-0.67-0.28-1.04c-0.05-0.37-0.08-0.71-0.08-1.01c0-0.52,0.03-1.08,0.08-1.67
		c0.05-0.59,0.15-1.17,0.29-1.74c0.14-0.57,0.33-1.12,0.57-1.63c0.24-0.51,0.54-0.96,0.91-1.33c0.2-0.2,0.4-0.29,0.59-0.25
		c0.19,0.03,0.37,0.12,0.54,0.25c0.17,0.14,0.32,0.3,0.47,0.49c0.14,0.19,0.27,0.35,0.37,0.47c0.05,1.25,0.1,2.48,0.16,3.7
		c0.06,1.22,0.09,2.45,0.09,3.68C85.41,109.56,85.24,109.73,85.03,109.92z"/>
</g>
</svg>
